#!OML:ASF F:\VICON\USERDATA\INSTALL\Justin_Nancy\Justin_Nancy.ASF
:FULLY-SPECIFIED
:DEGREES
281
root 14.2801 17.2975 24.1397 3.04143 35.6298 4.944
lowerback 5.5417 0.220398 -4.06816
upperback 0.110719 0.0564268 0.656301
thorax -3.00018 0.0917705 2.95904
lowerneck -13.6561 -2.37109 -8.8131
upperneck 25.0087 -2.07708 4.10448
head 10.3999 -1.24782 2.69998
rclavicle -1.30303e-013 -6.75868e-015
rhumerus -38.0594 -17.866 -74.4062
rradius 26.4778
rwrist 15.3715
rhand -15.4307 13.3496
rfingers 7.12502
rthumb 10.7493 -16.3553
lclavicle -1.30303e-013 -6.75868e-015
lhumerus -31.4689 9.98207 83.5555
lradius 24.0962
lwrist -11.8083
lhand -14.4733 24.8951
lfingers 7.12502
lthumb 11.6727 54.5499
rfemur -24.3278 -2.96565 18.2409
rtibia 73.3912
rfoot -2.21594 -10.5788
rtoes 8.94388
lfemur -13.487 -1.54942 -27.7386
ltibia 32.4775
lfoot -14.1755 0.460702
ltoes -2.82979
282
root 14.3971 17.2783 24.3239 2.99495 35.7739 4.81348
lowerback 5.56097 0.15054 -4.18048
upperback 0.107096 -0.0416641 0.756894
thorax -3.00677 0.0454488 3.13466
lowerneck -13.9059 -2.41762 -8.88569
upperneck 25.1709 -2.1192 4.16519
head 10.5129 -1.26773 2.73089
rclavicle 4.27387e-015 2.38542e-015
rhumerus -38.5452 -18.4215 -74.0721
rradius 26.0664
rwrist 15.3117
rhand -15.3444 13.0762
rfingers 7.12502
rthumb 10.8326 -16.6245
lclavicle 4.27387e-015 2.38542e-015
lhumerus -30.9736 9.82806 83.4377
lradius 24.2652
lwrist -11.7047
lhand -14.6257 21.223
lfingers 7.12502
lthumb 11.5257 50.8861
rfemur -25.746 -2.84438 18.5515
rtibia 72.6958
rfoot -2.9334 -9.87319
rtoes 3.12372
lfemur -12.665 -1.78539 -27.5787
ltibia 32.4361
lfoot -14.9458 0.583025
ltoes -1.32391
283
root 14.5242 17.2606 24.5044 3.27809 36.1633 5.53821
lowerback 5.85235 -0.00500805 -4.83692
upperback 0.064061 -0.309457 0.677839
thorax -3.18996 -0.0732527 3.44671
lowerneck -14.0095 -2.45079 -9.01248
upperneck 25.3657 -2.14328 4.23428
head 10.6095 -1.28463 2.77755
rclavicle -6.95746e-016 1.11319e-014
rhumerus -38.9596 -18.4634 -73.8391
rradius 25.4232
rwrist 14.7939
rhand -15.6519 12.9344
rfingers 7.12502
rthumb 10.536 -16.7816
lclavicle -6.95746e-016 1.11319e-014
lhumerus -30.6771 9.06178 83.7408
lradius 24.9826
lwrist -11.1175
lhand -14.4274 20.6033
lfingers 7.12502
lthumb 11.7169 50.2556
rfemur -26.801 -3.11155 17.9643
rtibia 71.8499
rfoot -4.2086 -9.27897
rtoes -1.17125
lfemur -11.5359 -2.07072 -28.214
ltibia 32.4298
lfoot -15.7416 0.737238
ltoes 1.38599
284
root 14.6567 17.2392 24.6857 4.03031 36.709 7.32556
lowerback 6.36894 -0.171053 -6.21994
upperback 0.03744 -0.671444 0.333459
thorax -3.46399 -0.224209 3.90499
lowerneck -13.9152 -2.47702 -9.17379
upperneck 25.3176 -2.18321 4.36274
head 10.58 -1.30346 2.84551
rclavicle 1.46604e-014 -1.74931e-014
rhumerus -39.4541 -18.6228 -73.5223
rradius 24.8214
rwrist 14.5062
rhand -15.5714 12.9757
rfingers 7.12502
rthumb 10.6136 -16.7363
lclavicle 1.46604e-014 -1.74931e-014
lhumerus -30.4332 8.24388 84.1047
lradius 25.8207
lwrist -10.4758
lhand -14.5634 20.634
lfingers 7.12502
lthumb 11.5858 50.2937
rfemur -27.5403 -3.84264 16.4048
rtibia 70.9493
rfoot -6.11935 -8.77125
rtoes -1.99608
lfemur -10.2455 -2.05834 -29.8237
ltibia 32.3023
lfoot -16.3937 0.982976
ltoes 0.605621
285
root 14.7859 17.2209 24.8681 4.53207 36.9796 8.32715
lowerback 6.45796 -0.279039 -7.07854
upperback 0.113772 -0.886383 0.195415
thorax -3.40086 -0.321256 4.26455
lowerneck -13.9621 -2.4778 -9.29273
upperneck 25.104 -2.16414 4.41198
head 10.5115 -1.29782 2.8817
rclavicle -4.56956e-014 -2.06736e-014
rhumerus -39.8621 -19.1935 -73.0866
rradius 24.4636
rwrist 14.4852
rhand -15.1544 12.7826
rfingers 7.12502
rthumb 11.0158 -16.9084
lclavicle -4.56956e-014 -2.06736e-014
lhumerus -29.8264 7.58638 84.4429
lradius 26.396
lwrist -9.81754
lhand -14.5233 20.2252
lfingers 7.12502
lthumb 11.6245 49.8828
rfemur -28.4322 -4.09128 15.6895
rtibia 69.8039
rfoot -7.78859 -8.64774
rtoes -1.93226
lfemur -9.2046 -1.9497 -30.7281
ltibia 32.03
lfoot -16.7555 1.1416
ltoes -0.296112
286
root 14.9113 17.2004 25.0448 4.6855 37.1859 8.42106
lowerback 6.38796 -0.405281 -7.17646
upperback 0.201459 -1.05084 0.231784
thorax -3.24689 -0.409118 4.37007
lowerneck -14.1996 -2.48066 -9.24318
upperneck 24.8829 -2.13719 4.3245
head 10.4732 -1.28744 2.84022
rclavicle -6.19711e-014 2.38542e-015
rhumerus -40.1862 -19.7508 -72.7381
rradius 24.3044
rwrist 14.3281
rhand -14.7273 12.8842
rfingers 7.12502
rthumb 11.4277 -16.7843
lclavicle -6.19711e-014 2.38542e-015
lhumerus -29.1827 6.48467 84.7616
lradius 27.1546
lwrist -8.93399
lhand -14.5147 21.2132
lfingers 7.12502
lthumb 11.6328 50.8702
rfemur -29.6174 -3.82685 15.7069
rtibia 68.2937
rfoot -8.67527 -8.59876
rtoes -1.61727
lfemur -8.32657 -1.93791 -30.8391
ltibia 31.6983
lfoot -16.8894 1.49227
ltoes -1.33907
287
root 15.0375 17.183 25.2259 4.87404 37.3429 8.58477
lowerback 6.38686 -0.391988 -7.25211
upperback 0.232403 -1.03825 0.193583
thorax -3.21505 -0.403848 4.37128
lowerneck -14.3844 -2.66898 -9.44914
upperneck 24.8074 -2.38811 4.52705
head 10.5068 -1.39641 2.91282
rclavicle 2.88238e-015 3.97569e-015
rhumerus -40.6479 -20.2355 -72.4183
rradius 24.2187
rwrist 14.0181
rhand -14.4111 12.7918
rfingers 7.12502
rthumb 11.7327 -16.8597
lclavicle 2.88238e-015 3.97569e-015
lhumerus -28.3794 5.64642 84.9478
lradius 27.4756
lwrist -8.94044
lhand -14.6826 22.3592
lfingers 7.12502
lthumb 11.4708 52.0254
rfemur -30.6905 -3.3555 15.5135
rtibia 66.3902
rfoot -9.29773 -8.39121
rtoes -0.412708
lfemur -7.3928 -1.86309 -30.9618
ltibia 31.4168
lfoot -17.2014 1.55074
ltoes -1.77535
